# xmcd CD database file
#
# Track frame offsets:
#	150
#	20787
#	38625
#	58237
#	67910
#	81772
#	97605
#	112810
#	134540
#	142350
#	155950
#
# Disc length: 2343 seconds
#
# Revision: 2
# Processed by: cddbd v1.5.2PL0 Copyright (c) Steve Scherf et al.
# Submitted via: CDex 1.70beta2
#
DISCID=9809250b
DTITLE=Ensemble Planeta - 麗しのアリア
DYEAR=2005
DGENRE=Classical
TTITLE0=アメイジング・グレイス
TTITLE1=Ｇ線上のアリア
TTITLE2=オンブラ・マイ・フ
TTITLE3=うつろな心
TTITLE4=スカボロー・フェア
TTITLE5=愛する人に林檎をあげよう
TTITLE6=あなたがいてくださるなら
TTITLE7=アリア
TTITLE8=メヌエット
TTITLE9=ブラック・イズ・ザ・カラー
TTITLE10=Oyasumi
EXTD=YEAR: 2005
EXTT0=
EXTT1=
EXTT2=
EXTT3=
EXTT4=
EXTT5=
EXTT6=
EXTT7=
EXTT8=
EXTT9=
EXTT10=
PLAYORDER=
